<svg width="28" height="28" viewBox="0 0 28 28" fill="none" xmlns="http://www.w3.org/2000/svg">
<path d="M14 15.1667C14.6443 15.1667 15.1666 14.6443 15.1666 14C15.1666 13.3557 14.6443 12.8333 14 12.8333C13.3556 12.8333 12.8333 13.3557 12.8333 14C12.8333 14.6443 13.3556 15.1667 14 15.1667Z" stroke="#1E1E1E" stroke-width="4" stroke-linecap="round" stroke-linejoin="round"/>
<path d="M14 6.99999C14.6443 6.99999 15.1666 6.47766 15.1666 5.83332C15.1666 5.18899 14.6443 4.66666 14 4.66666C13.3556 4.66666 12.8333 5.18899 12.8333 5.83332C12.8333 6.47766 13.3556 6.99999 14 6.99999Z" stroke="#1E1E1E" stroke-width="4" stroke-linecap="round" stroke-linejoin="round"/>
<path d="M14 23.3333C14.6443 23.3333 15.1666 22.811 15.1666 22.1667C15.1666 21.5223 14.6443 21 14 21C13.3556 21 12.8333 21.5223 12.8333 22.1667C12.8333 22.811 13.3556 23.3333 14 23.3333Z" stroke="#1E1E1E" stroke-width="4" stroke-linecap="round" stroke-linejoin="round"/>
</svg>
