<svg width="150" height="150" viewBox="0 0 150 150" fill="none" xmlns="http://www.w3.org/2000/svg">
<circle cx="75" cy="75" r="75" fill="white"/>
<path d="M31.5783 51.1035L33.6603 52.4874L33.6603 52.4874L31.5783 51.1035ZM117.004 49.7943L114.969 51.2464L114.969 51.2464L117.004 49.7943ZM124.588 63.4658C125.95 63.6934 127.238 62.774 127.466 61.4121L131.175 39.22C131.403 37.8582 130.483 36.5697 129.121 36.3421C127.76 36.1144 126.471 37.0339 126.243 38.3957L122.946 58.1221L103.22 54.825C101.858 54.5974 100.57 55.5168 100.342 56.8786C100.114 58.2404 101.034 59.5289 102.396 59.7566L124.588 63.4658ZM27.082 62.3839L33.6603 52.4874L29.4963 49.7196L22.918 59.6161L27.082 62.3839ZM114.969 51.2464L122.965 62.4522L127.035 59.5478L119.039 48.3421L114.969 51.2464ZM74.6774 30.5C90.6709 30.5 105.679 38.2277 114.969 51.2464L119.039 48.3421C108.81 34.0083 92.2864 25.5 74.6774 25.5V30.5ZM33.6603 52.4874C42.7894 38.7536 58.1862 30.5 74.6774 30.5V25.5C56.512 25.5 39.5522 34.5914 29.4963 49.7196L33.6603 52.4874Z" fill="black"/>
<path d="M118.422 98.8965L116.34 97.5126L116.34 97.5126L118.422 98.8965ZM32.9963 100.206L35.0313 98.7536L35.0313 98.7536L32.9963 100.206ZM25.4121 86.5342C24.0503 86.3066 22.7618 87.226 22.5342 88.5879L18.825 110.78C18.5974 112.142 19.5168 113.43 20.8786 113.658C22.2404 113.886 23.5289 112.966 23.7566 111.604L27.0537 91.8779L46.78 95.175C48.1418 95.4026 49.4303 94.4832 49.6579 93.1214C49.8856 91.7596 48.9661 90.4711 47.6043 90.2434L25.4121 86.5342ZM122.918 87.6161L116.34 97.5126L120.504 100.28L127.082 90.3839L122.918 87.6161ZM35.0313 98.7536L27.035 87.5478L22.965 90.4522L30.9613 101.658L35.0313 98.7536ZM75.3226 119.5C59.3291 119.5 44.3213 111.772 35.0313 98.7536L30.9613 101.658C41.1897 115.992 57.7136 124.5 75.3226 124.5L75.3226 119.5ZM116.34 97.5126C107.211 111.246 91.8138 119.5 75.3226 119.5L75.3226 124.5C93.488 124.5 110.448 115.409 120.504 100.28L116.34 97.5126Z" fill="black"/>
</svg>
