<svg width="28" height="28" viewBox="0 0 28 28" fill="none" xmlns="http://www.w3.org/2000/svg">
<path d="M14 15.1667C14.6444 15.1667 15.1667 14.6443 15.1667 14C15.1667 13.3557 14.6444 12.8333 14 12.8333C13.3557 12.8333 12.8334 13.3557 12.8334 14C12.8334 14.6443 13.3557 15.1667 14 15.1667Z" stroke="#1E1E1E" stroke-width="4" stroke-linecap="round" stroke-linejoin="round"/>
<path d="M14 7C14.6444 7 15.1667 6.47766 15.1667 5.83333C15.1667 5.189 14.6444 4.66666 14 4.66666C13.3557 4.66666 12.8334 5.189 12.8334 5.83333C12.8334 6.47766 13.3557 7 14 7Z" stroke="#1E1E1E" stroke-width="4" stroke-linecap="round" stroke-linejoin="round"/>
<path d="M14 23.3333C14.6444 23.3333 15.1667 22.811 15.1667 22.1667C15.1667 21.5223 14.6444 21 14 21C13.3557 21 12.8334 21.5223 12.8334 22.1667C12.8334 22.811 13.3557 23.3333 14 23.3333Z" stroke="#1E1E1E" stroke-width="4" stroke-linecap="round" stroke-linejoin="round"/>
</svg>
