<svg width="24" height="22" viewBox="0 0 24 22" fill="none" xmlns="http://www.w3.org/2000/svg">
<path d="M16 15L12 11M12 11L7.99999 15M12 11V20M20.39 17.39C21.3653 16.8583 22.1358 16.0169 22.5799 14.9986C23.0239 13.9804 23.1162 12.8432 22.8422 11.7667C22.5682 10.6902 21.9435 9.73553 21.0667 9.05346C20.1898 8.3714 19.1109 8.00075 18 8.00001H16.74C16.4373 6.82926 15.8732 5.74235 15.0899 4.82101C14.3067 3.89967 13.3248 3.16786 12.2181 2.68062C11.1113 2.19338 9.90854 1.96337 8.70011 2.0079C7.49167 2.05242 6.30906 2.37031 5.24117 2.93768C4.17328 3.50505 3.2479 4.30712 2.53461 5.2836C1.82132 6.26008 1.33868 7.38555 1.12297 8.57541C0.90726 9.76527 0.964096 10.9885 1.2892 12.1533C1.61431 13.318 2.19923 14.3939 2.99999 15.3" stroke="#888888" stroke-width="4" stroke-linecap="round" stroke-linejoin="round"/>
</svg>
